<svg width="18" height="18" viewBox="0 0 18 18" fill="none" xmlns="http://www.w3.org/2000/svg">
<path d="M8.40089 1.48962C8.72725 1.3036 8.87944 0.914952 8.76617 0.556777C8.6529 0.198601 8.30492 -0.0318712 7.93094 0.00358819C3.48076 0.425535 0 4.17185 0 8.73208C0 13.5745 3.92556 17.5001 8.76798 17.5001C13.328 17.5001 17.0741 14.0197 17.4964 9.56982C17.5319 9.19584 17.3015 8.84785 16.9433 8.73455C16.5851 8.62125 16.1965 8.77341 16.0104 9.09976C15.0489 10.7864 13.236 11.9206 11.1593 11.9206C8.07771 11.9206 5.57963 9.42255 5.57963 6.341C5.57963 4.26406 6.71405 2.45107 8.40089 1.48962Z" fill="#FAFAFA"/>
</svg>
