<svg width="16" height="16" viewBox="0 0 16 16" fill="none" xmlns="http://www.w3.org/2000/svg">
<path d="M8.6665 1.33268C8.6665 0.964492 8.36803 0.666016 7.99984 0.666016C7.63165 0.666016 7.33317 0.964492 7.33317 1.33268V2.66602C7.33317 3.03421 7.63165 3.33268 7.99984 3.33268C8.36803 3.33268 8.6665 3.03421 8.6665 2.66602V1.33268Z" fill="#1D2023"/>
<path d="M8.6665 13.3327C8.6665 12.9645 8.36803 12.666 7.99984 12.666C7.63165 12.666 7.33317 12.9645 7.33317 13.3327V14.666C7.33317 15.0342 7.63165 15.3327 7.99984 15.3327C8.36803 15.3327 8.6665 15.0342 8.6665 14.666V13.3327Z" fill="#1D2023"/>
<path d="M0.666504 7.99935C0.666504 7.63116 0.964981 7.33268 1.33317 7.33268H2.6665C3.03469 7.33268 3.33317 7.63116 3.33317 7.99935C3.33317 8.36754 3.03469 8.66602 2.6665 8.66602H1.33317C0.964981 8.66602 0.666504 8.36754 0.666504 7.99935Z" fill="#1D2023"/>
<path d="M3.73784 2.79455C3.47749 2.5342 3.05538 2.5342 2.79503 2.79455C2.53468 3.0549 2.53468 3.47701 2.79503 3.73735L3.73784 4.68016C3.99819 4.94051 4.4203 4.94051 4.68065 4.68016C4.941 4.41981 4.941 3.9977 4.68065 3.73735L3.73784 2.79455Z" fill="#1D2023"/>
<path d="M13.2047 2.79455C13.465 3.0549 13.465 3.47701 13.2047 3.73735L12.2619 4.68016C12.0015 4.94051 11.5794 4.94051 11.319 4.68016C11.0587 4.41981 11.0587 3.9977 11.319 3.73735L12.2619 2.79455C12.5222 2.5342 12.9443 2.5342 13.2047 2.79455Z" fill="#1D2023"/>
<path d="M4.68065 12.264C4.941 12.0037 4.941 11.5816 4.68065 11.3212C4.4203 11.0609 3.99819 11.0609 3.73784 11.3212L2.79503 12.264C2.53468 12.5244 2.53468 12.9465 2.79503 13.2069C3.05538 13.4672 3.47749 13.4672 3.73784 13.2069L4.68065 12.264Z" fill="#1D2023"/>
<path d="M11.319 11.3212C11.5794 11.0609 12.0015 11.0609 12.2619 11.3212L13.2047 12.264C13.465 12.5244 13.465 12.9465 13.2047 13.2069C12.9443 13.4672 12.5222 13.4672 12.2619 13.2069L11.319 12.264C11.0587 12.0037 11.0587 11.5816 11.319 11.3212Z" fill="#1D2023"/>
<path d="M13.3332 7.33268C12.965 7.33268 12.6665 7.63116 12.6665 7.99935C12.6665 8.36754 12.965 8.66602 13.3332 8.66602H14.6665C15.0347 8.66602 15.3332 8.36754 15.3332 7.99935C15.3332 7.63116 15.0347 7.33268 14.6665 7.33268H13.3332Z" fill="#1D2023"/>
<path d="M7.99984 3.99935C5.7907 3.99935 3.99984 5.79021 3.99984 7.99935C3.99984 10.2085 5.7907 11.9993 7.99984 11.9993C10.209 11.9993 11.9998 10.2085 11.9998 7.99935C11.9998 5.79021 10.209 3.99935 7.99984 3.99935Z" fill="#1D2023"/>
</svg>
